<svg width="120" height="120" viewBox="0 0 120 120" fill="none" xmlns="http://www.w3.org/2000/svg">
<g clip-path="url(#clip0_125_13015)">
<path d="M116.68 62.9255L113.807 60.0518L91.1801 82.6783L94.0538 85.552L116.68 62.9255Z" fill="#000010"/>
<path d="M91.1798 82.6781L85.4512 76.9495L82.6113 79.7894L88.3399 85.518L91.1798 82.6781Z" fill="#000010"/>
<path d="M96.7548 65.6457L93.8999 62.7907L91.0785 65.6121L88.2236 62.7571L85.3836 65.5971L88.2386 68.452L82.5959 74.0947L85.4508 76.9497L96.7548 65.6457Z" fill="#000010"/>
<path d="M85.3835 65.5969L82.5098 62.7231L79.6884 65.5445L82.5621 68.4182L85.3835 65.5969Z" fill="#000010"/>
<path d="M79.6889 65.5446L76.834 62.6897L74.0126 65.5111L76.8676 68.366L79.6889 65.5446Z" fill="#000010"/>
<path d="M91.0123 54.2221L93.886 57.0958L96.7073 54.2745L85.25 42.8171L82.4286 45.6385L88.1573 51.3672L85.3174 54.2071L88.1723 57.062L91.0123 54.2221Z" fill="#000010"/>
<path d="M85.3171 54.207L82.4434 51.3333L79.622 54.1546L82.4957 57.0283L85.3171 54.207Z" fill="#000010"/>
<path d="M116.628 57.2304L93.7324 34.3345L90.9111 37.1558L113.807 60.0517L116.628 57.2304Z" fill="#000010"/>
<path d="M74.0119 65.5109L68.2832 59.7822L65.4433 62.6221L71.172 68.3508L74.0119 65.5109Z" fill="#000010"/>
<path d="M79.6225 54.1547L76.7676 51.2998L73.9277 54.1397L76.7826 56.9947L79.6225 54.1547Z" fill="#000010"/>
<path d="M73.9272 54.1396L71.0723 51.2847L65.4296 56.9274L68.2845 59.7823L73.9272 54.1396Z" fill="#000010"/>
<path d="M90.9096 37.1557L88.0547 34.3008L82.3934 39.9621L85.2484 42.817L90.9096 37.1557Z" fill="#000010"/>
</g>
<defs>
<clipPath id="clip0_125_13015">
<rect width="85" height="84" fill="white" transform="translate(59.3965) rotate(45)"/>
</clipPath>
</defs>
</svg>
