<svg width="120" height="120" viewBox="0 0 120 120" fill="none" xmlns="http://www.w3.org/2000/svg">
<g clip-path="url(#clip0_131_21780)">
<path d="M116.682 62.9255L113.809 60.0518L91.1821 82.6783L94.0558 85.552L116.682 62.9255Z" fill="#FDDEC3"/>
<path d="M91.1818 82.6781L85.4531 76.9495L82.6132 79.7894L88.3419 85.518L91.1818 82.6781Z" fill="#FDDEC3"/>
<path d="M96.7568 65.6457L93.9018 62.7907L91.0805 65.6121L88.2255 62.7571L85.3856 65.5971L88.2405 68.452L82.5978 74.0947L85.4528 76.9497L96.7568 65.6457Z" fill="#FDDEC3"/>
<path d="M85.3854 65.5969L82.5117 62.7231L79.6904 65.5445L82.5641 68.4182L85.3854 65.5969Z" fill="#FDDEC3"/>
<path d="M79.6909 65.5446L76.8359 62.6897L74.0146 65.5111L76.8695 68.366L79.6909 65.5446Z" fill="#FDDEC3"/>
<path d="M91.0123 54.2221L93.886 57.0958L96.7073 54.2745L85.25 42.8171L82.4286 45.6385L88.1573 51.3672L85.3174 54.2071L88.1723 57.062L91.0123 54.2221Z" fill="#FDDEC3"/>
<path d="M85.319 54.207L82.4453 51.3333L79.624 54.1546L82.4977 57.0283L85.319 54.207Z" fill="#FDDEC3"/>
<path d="M116.63 57.2304L93.7344 34.3345L90.913 37.1558L113.809 60.0517L116.63 57.2304Z" fill="#FDDEC3"/>
<path d="M74.0138 65.5109L68.2852 59.7822L65.4452 62.6221L71.1739 68.3508L74.0138 65.5109Z" fill="#FDDEC3"/>
<path d="M79.6245 54.1547L76.7695 51.2998L73.9296 54.1397L76.7846 56.9947L79.6245 54.1547Z" fill="#FDDEC3"/>
<path d="M73.9292 54.1396L71.0742 51.2847L65.4315 56.9274L68.2865 59.7823L73.9292 54.1396Z" fill="#FDDEC3"/>
<path d="M90.9135 37.1557L88.0586 34.3008L82.3973 39.9621L85.2523 42.817L90.9135 37.1557Z" fill="#FDDEC3"/>
</g>
<defs>
<clipPath id="clip0_131_21780">
<rect width="85" height="84" fill="white" transform="translate(59.3984) rotate(45)"/>
</clipPath>
</defs>
</svg>
