<svg width="1409" height="442" viewBox="0 0 1409 442" fill="none" xmlns="http://www.w3.org/2000/svg">
<line x1="62" y1="258" x2="15" y2="258" stroke="#000010" stroke-width="4"/>
<line x1="603" y1="255" x2="536" y2="255" stroke="#000010" stroke-width="4"/>
<line x1="1069" y1="190" x2="1002" y2="190" stroke="#000010" stroke-width="4"/>
<line x1="662" y1="353" x2="641" y2="353" stroke="#000010" stroke-width="4"/>
<line x1="1128" y1="324" x2="1107" y2="324" stroke="#000010" stroke-width="4"/>
<line y1="-2" x2="34" y2="-2" transform="matrix(-1 0 0 1 19 161)" stroke="#000010" stroke-width="4"/>
<line x1="800" y1="250" x2="827" y2="250" stroke="#000010" stroke-width="4"/>
<line y1="-2" x2="57" y2="-2" transform="matrix(-1 0 0 1 536 161)" stroke="#000010" stroke-width="4"/>
<line x1="295" y1="189" x2="342" y2="189" stroke="#000010" stroke-width="4"/>
<line x1="299" y1="285" x2="225" y2="285" stroke="#000010" stroke-width="4"/>
<line x1="804" y1="347" x2="760" y2="347" stroke="#000010" stroke-width="4"/>
<line x1="385" y1="16" x2="458" y2="16" stroke="#000010" stroke-width="4"/>
<line x1="885" y1="18" x2="958" y2="18" stroke="#000010" stroke-width="4"/>
<line x1="58" y1="276" x2="118" y2="276" stroke="#000010" stroke-width="4"/>
<line x1="599" y1="276" x2="645" y2="276" stroke="#000010" stroke-width="4"/>
<line x1="1065" y1="220" x2="1111" y2="220" stroke="#000010" stroke-width="4"/>
<line x1="661" y1="372" x2="674" y2="372" stroke="#000010" stroke-width="4"/>
<line x1="1127" y1="352" x2="1140" y2="352" stroke="#000010" stroke-width="4"/>
<line x1="114" y1="426" x2="196" y2="426" stroke="#000010" stroke-width="4"/>
<line x1="674" y1="426" x2="736" y2="426" stroke="#000010" stroke-width="4"/>
<line y1="-2" x2="28" y2="-2" transform="matrix(-1 0 0 1 1006 98)" stroke="#000010" stroke-width="4"/>
<line x1="370" y1="36" x2="388" y2="36" stroke="#000010" stroke-width="4"/>
<line x1="870" y1="44" x2="888" y2="44" stroke="#000010" stroke-width="4"/>
<line x1="824" y1="155" x2="847" y2="155" stroke="#000010" stroke-width="4"/>
<line y1="-2" x2="27" y2="-2" transform="matrix(-1 0 0 1 481 65)" stroke="#000010" stroke-width="4"/>
<line y1="-2" x2="28" y2="-2" transform="matrix(-1 0 0 1 982 81)" stroke="#000010" stroke-width="4"/>
<line x1="874" y1="109" x2="847" y2="109" stroke="#000010" stroke-width="4"/>
<line x1="338" y1="93" x2="374" y2="93" stroke="#000010" stroke-width="4"/>
<line x1="228" y1="381" x2="193" y2="381" stroke="#000010" stroke-width="4"/>
<line x1="761" y1="381" x2="732" y2="381" stroke="#000010" stroke-width="4"/>
<line x1="980" y1="79" x2="980" y2="98" stroke="#000010" stroke-width="4"/>
<line x1="387" y1="16" x2="387" y2="38" stroke="#000010" stroke-width="4"/>
<line x1="887" y1="18" x2="887" y2="46" stroke="#000010" stroke-width="4"/>
<line y1="-2" x2="21" y2="-2" transform="matrix(4.0021e-07 -1 -1 -4.77421e-09 58 278)" stroke="#000010" stroke-width="4"/>
<line x1="601" y1="278" x2="601" y2="253" stroke="#000010" stroke-width="4"/>
<line x1="1067" y1="222" x2="1067" y2="188" stroke="#000010" stroke-width="4"/>
<line x1="660" y1="374" x2="660" y2="351" stroke="#000010" stroke-width="4"/>
<line x1="1126" y1="354" x2="1126" y2="322" stroke="#000010" stroke-width="4"/>
<line x1="846" y1="107" x2="846" y2="157" stroke="#000010" stroke-width="4"/>
<line y1="-2" x2="49" y2="-2" transform="matrix(-2.84778e-07 1 1 6.70939e-09 458 16)" stroke="#000010" stroke-width="4"/>
<line x1="956" y1="17" x2="956" y2="80" stroke="#000010" stroke-width="4"/>
<line x1="672" y1="372" x2="672" y2="428" stroke="#000010" stroke-width="4"/>
<line x1="1138" y1="351" x2="1138" y2="428" stroke="#000010" stroke-width="4"/>
<line x1="372" y1="36" x2="372" y2="95" stroke="#000010" stroke-width="4"/>
<line x1="872" y1="42" x2="872" y2="111" stroke="#000010" stroke-width="4"/>
<line x1="194" y1="428" x2="194" y2="379" stroke="#000010" stroke-width="4"/>
<line x1="734" y1="428" x2="734" y2="379" stroke="#000010" stroke-width="4"/>
<line x1="1004" y1="94" x2="1004" y2="192" stroke="#000010" stroke-width="4"/>
<line x1="116" y1="428" x2="116" y2="274" stroke="#000010" stroke-width="4"/>
<line x1="643" y1="354" x2="643" y2="274" stroke="#000010" stroke-width="4"/>
<line x1="1109" y1="325" x2="1109" y2="219" stroke="#000010" stroke-width="4"/>
<line y1="-2" x2="99" y2="-2" transform="matrix(-3.74784e-08 1 1 5.09809e-08 19 158)" stroke="#000010" stroke-width="4"/>
<line x1="802" y1="249" x2="802" y2="347" stroke="#000010" stroke-width="4"/>
<line x1="538" y1="158" x2="538" y2="256" stroke="#000010" stroke-width="4"/>
<line x1="297" y1="188" x2="297" y2="286" stroke="#000010" stroke-width="4"/>
<line x1="826" y1="153" x2="826" y2="252" stroke="#000010" stroke-width="4"/>
<line x1="481" y1="63" x2="481" y2="161" stroke="#000010" stroke-width="4"/>
<line x1="340" y1="92" x2="340" y2="191" stroke="#000010" stroke-width="4"/>
<line x1="226" y1="381" x2="226" y2="283" stroke="#000010" stroke-width="4"/>
<line x1="1338" y1="285" x2="1247" y2="285" stroke="#000010" stroke-width="4"/>
<line x1="1375" y1="285" x2="1344" y2="285" stroke="#000010" stroke-width="4"/>
<line x1="1396" y1="285" x2="1381" y2="285" stroke="#000010" stroke-width="4"/>
<line x1="1409" y1="285" x2="1402" y2="285" stroke="#000010" stroke-width="4"/>
<line x1="1136" y1="426" x2="1218" y2="426" stroke="#000010" stroke-width="4"/>
<line x1="1250" y1="381" x2="1215" y2="381" stroke="#000010" stroke-width="4"/>
<line x1="1216" y1="428" x2="1216" y2="379" stroke="#000010" stroke-width="4"/>
<line x1="1248" y1="381" x2="1248" y2="283" stroke="#000010" stroke-width="4"/>
<line x1="759" y1="381" x2="759" y2="345" stroke="#000010" stroke-width="4"/>
<g clip-path="url(#clip0_145_624)">
<path d="M161.001 422.19H159.471V429.81H161.001V422.19Z" fill="#000010"/>
<path d="M159.469 429.81H157.949V432.86H159.469V429.81Z" fill="#000010"/>
<path d="M159.469 419.14H157.949V422.19H159.469V419.14Z" fill="#000010"/>
<path d="M157.95 432.86H156.43V435.9H157.95V432.86Z" fill="#000010"/>
<path d="M157.95 422.19H156.43V429.81H157.95V422.19Z" fill="#000010"/>
<path d="M157.95 416.1H156.43V419.14H157.95V416.1Z" fill="#000010"/>
<path d="M156.43 435.9H154.9V437.43H156.43V435.9Z" fill="#000010"/>
<path d="M156.43 429.81H154.9V432.86H156.43V429.81Z" fill="#000010"/>
<path d="M156.43 419.14H154.9V422.19H156.43V419.14Z" fill="#000010"/>
<path d="M156.43 414.57H154.9V416.1H156.43V414.57Z" fill="#000010"/>
<path d="M154.901 432.86H153.381V434.38H154.901V432.86Z" fill="#000010"/>
<path d="M154.901 417.62H153.381V419.14H154.901V417.62Z" fill="#000010"/>
<path d="M154.9 437.43H151.85V438.95H154.9V437.43Z" fill="#000010"/>
<path d="M153.38 434.38H151.85V435.9H153.38V434.38Z" fill="#000010"/>
<path d="M153.38 416.1H151.85V417.62H153.38V416.1Z" fill="#000010"/>
<path d="M154.9 413.05H151.85V414.57H154.9V413.05Z" fill="#000010"/>
<path d="M151.851 438.95H148.811V440.48H151.851V438.95Z" fill="#000010"/>
<path d="M151.851 435.9H148.811V437.43H151.851V435.9Z" fill="#000010"/>
<path d="M151.851 414.57H148.811V416.1H151.851V414.57Z" fill="#000010"/>
<path d="M151.851 411.52H148.811V413.05H151.851V411.52Z" fill="#000010"/>
<path d="M148.809 440.48H141.189V442H148.809V440.48Z" fill="#000010"/>
<path d="M148.809 437.43H141.189V438.95H148.809V437.43Z" fill="#000010"/>
<path d="M148.809 413.05H141.189V414.57H148.809V413.05Z" fill="#000010"/>
<path d="M148.809 410H141.189V411.52H148.809V410Z" fill="#000010"/>
<path d="M141.191 438.95H138.141V440.48H141.191V438.95Z" fill="#000010"/>
<path d="M141.191 435.9H138.141V437.43H141.191V435.9Z" fill="#000010"/>
<path d="M141.191 414.57H138.141V416.1H141.191V414.57Z" fill="#000010"/>
<path d="M138.141 416.1H136.621V417.62H138.141V416.1Z" fill="#000010"/>
<path d="M141.191 411.52H138.141V413.05H141.191V411.52Z" fill="#000010"/>
<path d="M138.14 437.43H135.09V438.95H138.14V437.43Z" fill="#000010"/>
<path d="M138.139 434.38H136.619V435.9H138.139V434.38Z" fill="#000010"/>
<path d="M138.14 413.05H135.09V414.57H138.14V413.05Z" fill="#000010"/>
<path d="M136.62 432.86H135.09V434.38H136.62V432.86Z" fill="#000010"/>
<path d="M136.62 417.62H135.09V419.14H136.62V417.62Z" fill="#000010"/>
<path d="M135.09 435.9H133.57V437.43H135.09V435.9Z" fill="#000010"/>
<path d="M135.09 429.81H133.57V432.86H135.09V429.81Z" fill="#000010"/>
<path d="M135.09 419.14H133.57V422.19H135.09V419.14Z" fill="#000010"/>
<path d="M135.09 414.57H133.57V416.1H135.09V414.57Z" fill="#000010"/>
<path d="M133.571 432.86H132.051V435.9H133.571V432.86Z" fill="#000010"/>
<path d="M133.571 422.19H132.051V429.81H133.571V422.19Z" fill="#000010"/>
<path d="M133.571 416.1H132.051V419.14H133.571V416.1Z" fill="#000010"/>
<path d="M132.05 429.81H130.52V432.86H132.05V429.81Z" fill="#000010"/>
<path d="M132.05 419.14H130.52V422.19H132.05V419.14Z" fill="#000010"/>
<path d="M130.52 422.19H129V429.81H130.52V422.19Z" fill="#000010"/>
</g>
<g clip-path="url(#clip1_145_624)">
<path d="M715.001 422.19H713.471V429.81H715.001V422.19Z" fill="#000010"/>
<path d="M713.469 429.81H711.949V432.86H713.469V429.81Z" fill="#000010"/>
<path d="M713.469 419.14H711.949V422.19H713.469V419.14Z" fill="#000010"/>
<path d="M711.95 432.86H710.43V435.9H711.95V432.86Z" fill="#000010"/>
<path d="M711.95 422.19H710.43V429.81H711.95V422.19Z" fill="#000010"/>
<path d="M711.95 416.1H710.43V419.14H711.95V416.1Z" fill="#000010"/>
<path d="M710.43 435.9H708.9V437.43H710.43V435.9Z" fill="#000010"/>
<path d="M710.43 429.81H708.9V432.86H710.43V429.81Z" fill="#000010"/>
<path d="M710.43 419.14H708.9V422.19H710.43V419.14Z" fill="#000010"/>
<path d="M710.43 414.57H708.9V416.1H710.43V414.57Z" fill="#000010"/>
<path d="M708.901 432.86H707.381V434.38H708.901V432.86Z" fill="#000010"/>
<path d="M708.901 417.62H707.381V419.14H708.901V417.62Z" fill="#000010"/>
<path d="M708.9 437.43H705.85V438.95H708.9V437.43Z" fill="#000010"/>
<path d="M707.38 434.38H705.85V435.9H707.38V434.38Z" fill="#000010"/>
<path d="M707.38 416.1H705.85V417.62H707.38V416.1Z" fill="#000010"/>
<path d="M708.9 413.05H705.85V414.57H708.9V413.05Z" fill="#000010"/>
<path d="M705.851 438.95H702.811V440.48H705.851V438.95Z" fill="#000010"/>
<path d="M705.851 435.9H702.811V437.43H705.851V435.9Z" fill="#000010"/>
<path d="M705.851 414.57H702.811V416.1H705.851V414.57Z" fill="#000010"/>
<path d="M705.851 411.52H702.811V413.05H705.851V411.52Z" fill="#000010"/>
<path d="M702.809 440.48H695.189V442H702.809V440.48Z" fill="#000010"/>
<path d="M702.809 437.43H695.189V438.95H702.809V437.43Z" fill="#000010"/>
<path d="M702.809 413.05H695.189V414.57H702.809V413.05Z" fill="#000010"/>
<path d="M702.809 410H695.189V411.52H702.809V410Z" fill="#000010"/>
<path d="M695.191 438.95H692.141V440.48H695.191V438.95Z" fill="#000010"/>
<path d="M695.191 435.9H692.141V437.43H695.191V435.9Z" fill="#000010"/>
<path d="M695.191 414.57H692.141V416.1H695.191V414.57Z" fill="#000010"/>
<path d="M692.141 416.1H690.621V417.62H692.141V416.1Z" fill="#000010"/>
<path d="M695.191 411.52H692.141V413.05H695.191V411.52Z" fill="#000010"/>
<path d="M692.14 437.43H689.09V438.95H692.14V437.43Z" fill="#000010"/>
<path d="M692.139 434.38H690.619V435.9H692.139V434.38Z" fill="#000010"/>
<path d="M692.14 413.05H689.09V414.57H692.14V413.05Z" fill="#000010"/>
<path d="M690.62 432.86H689.09V434.38H690.62V432.86Z" fill="#000010"/>
<path d="M690.62 417.62H689.09V419.14H690.62V417.62Z" fill="#000010"/>
<path d="M689.09 435.9H687.57V437.43H689.09V435.9Z" fill="#000010"/>
<path d="M689.09 429.81H687.57V432.86H689.09V429.81Z" fill="#000010"/>
<path d="M689.09 419.14H687.57V422.19H689.09V419.14Z" fill="#000010"/>
<path d="M689.09 414.57H687.57V416.1H689.09V414.57Z" fill="#000010"/>
<path d="M687.571 432.86H686.051V435.9H687.571V432.86Z" fill="#000010"/>
<path d="M687.571 422.19H686.051V429.81H687.571V422.19Z" fill="#000010"/>
<path d="M687.571 416.1H686.051V419.14H687.571V416.1Z" fill="#000010"/>
<path d="M686.05 429.81H684.52V432.86H686.05V429.81Z" fill="#000010"/>
<path d="M686.05 419.14H684.52V422.19H686.05V419.14Z" fill="#000010"/>
<path d="M684.52 422.19H683V429.81H684.52V422.19Z" fill="#000010"/>
</g>
<g clip-path="url(#clip2_145_624)">
<path d="M429.001 12.1899H427.471V19.8099H429.001V12.1899Z" fill="#000010"/>
<path d="M427.469 19.8101H425.949V22.8601H427.469V19.8101Z" fill="#000010"/>
<path d="M427.469 9.14001H425.949V12.19H427.469V9.14001Z" fill="#000010"/>
<path d="M425.95 22.86H424.43V25.9H425.95V22.86Z" fill="#000010"/>
<path d="M425.95 12.1899H424.43V19.8099H425.95V12.1899Z" fill="#000010"/>
<path d="M425.95 6.09998H424.43V9.13998H425.95V6.09998Z" fill="#000010"/>
<path d="M424.43 25.9H422.9V27.43H424.43V25.9Z" fill="#000010"/>
<path d="M424.43 19.8101H422.9V22.8601H424.43V19.8101Z" fill="#000010"/>
<path d="M424.43 9.14001H422.9V12.19H424.43V9.14001Z" fill="#000010"/>
<path d="M424.43 4.56995H422.9V6.09995H424.43V4.56995Z" fill="#000010"/>
<path d="M422.901 22.86H421.381V24.38H422.901V22.86Z" fill="#000010"/>
<path d="M422.901 7.62H421.381V9.14H422.901V7.62Z" fill="#000010"/>
<path d="M422.9 27.4301H419.85V28.9501H422.9V27.4301Z" fill="#000010"/>
<path d="M421.38 24.38H419.85V25.9H421.38V24.38Z" fill="#000010"/>
<path d="M421.38 6.09998H419.85V7.61998H421.38V6.09998Z" fill="#000010"/>
<path d="M422.9 3.05005H419.85V4.57005H422.9V3.05005Z" fill="#000010"/>
<path d="M419.851 28.95H416.811V30.4799H419.851V28.95Z" fill="#000010"/>
<path d="M419.851 25.9H416.811V27.43H419.851V25.9Z" fill="#000010"/>
<path d="M419.851 4.56995H416.811V6.09995H419.851V4.56995Z" fill="#000010"/>
<path d="M419.851 1.52002H416.811V3.05002H419.851V1.52002Z" fill="#000010"/>
<path d="M416.809 30.48H409.189V32H416.809V30.48Z" fill="#000010"/>
<path d="M416.809 27.4301H409.189V28.9501H416.809V27.4301Z" fill="#000010"/>
<path d="M416.809 3.05005H409.189V4.57005H416.809V3.05005Z" fill="#000010"/>
<path d="M416.809 0H409.189V1.52H416.809V0Z" fill="#000010"/>
<path d="M409.191 28.95H406.141V30.4799H409.191V28.95Z" fill="#000010"/>
<path d="M409.191 25.9H406.141V27.43H409.191V25.9Z" fill="#000010"/>
<path d="M409.191 4.56995H406.141V6.09995H409.191V4.56995Z" fill="#000010"/>
<path d="M406.141 6.09998H404.621V7.61998H406.141V6.09998Z" fill="#000010"/>
<path d="M409.191 1.52002H406.141V3.05002H409.191V1.52002Z" fill="#000010"/>
<path d="M406.14 27.4301H403.09V28.9501H406.14V27.4301Z" fill="#000010"/>
<path d="M406.139 24.38H404.619V25.9H406.139V24.38Z" fill="#000010"/>
<path d="M406.14 3.05005H403.09V4.57005H406.14V3.05005Z" fill="#000010"/>
<path d="M404.62 22.86H403.09V24.38H404.62V22.86Z" fill="#000010"/>
<path d="M404.62 7.62H403.09V9.14H404.62V7.62Z" fill="#000010"/>
<path d="M403.09 25.9H401.57V27.43H403.09V25.9Z" fill="#000010"/>
<path d="M403.09 19.8101H401.57V22.8601H403.09V19.8101Z" fill="#000010"/>
<path d="M403.09 9.14001H401.57V12.19H403.09V9.14001Z" fill="#000010"/>
<path d="M403.09 4.56995H401.57V6.09995H403.09V4.56995Z" fill="#000010"/>
<path d="M401.571 22.86H400.051V25.9H401.571V22.86Z" fill="#000010"/>
<path d="M401.571 12.1899H400.051V19.8099H401.571V12.1899Z" fill="#000010"/>
<path d="M401.571 6.09998H400.051V9.13998H401.571V6.09998Z" fill="#000010"/>
<path d="M400.05 19.8101H398.52V22.8601H400.05V19.8101Z" fill="#000010"/>
<path d="M400.05 9.14001H398.52V12.19H400.05V9.14001Z" fill="#000010"/>
<path d="M398.52 12.1899H397V19.8099H398.52V12.1899Z" fill="#000010"/>
</g>
<g clip-path="url(#clip3_145_624)">
<path d="M930.001 14.1899H928.471V21.8099H930.001V14.1899Z" fill="#000010"/>
<path d="M928.469 21.8101H926.949V24.8601H928.469V21.8101Z" fill="#000010"/>
<path d="M928.469 11.14H926.949V14.19H928.469V11.14Z" fill="#000010"/>
<path d="M926.95 24.86H925.43V27.9H926.95V24.86Z" fill="#000010"/>
<path d="M926.95 14.1899H925.43V21.8099H926.95V14.1899Z" fill="#000010"/>
<path d="M926.95 8.09998H925.43V11.14H926.95V8.09998Z" fill="#000010"/>
<path d="M925.43 27.9H923.9V29.43H925.43V27.9Z" fill="#000010"/>
<path d="M925.43 21.8101H923.9V24.8601H925.43V21.8101Z" fill="#000010"/>
<path d="M925.43 11.14H923.9V14.19H925.43V11.14Z" fill="#000010"/>
<path d="M925.43 6.56995H923.9V8.09995H925.43V6.56995Z" fill="#000010"/>
<path d="M923.901 24.86H922.381V26.38H923.901V24.86Z" fill="#000010"/>
<path d="M923.901 9.62H922.381V11.14H923.901V9.62Z" fill="#000010"/>
<path d="M923.9 29.4301H920.85V30.9501H923.9V29.4301Z" fill="#000010"/>
<path d="M922.38 26.38H920.85V27.9H922.38V26.38Z" fill="#000010"/>
<path d="M922.38 8.09998H920.85V9.61998H922.38V8.09998Z" fill="#000010"/>
<path d="M923.9 5.05005H920.85V6.57005H923.9V5.05005Z" fill="#000010"/>
<path d="M920.851 30.95H917.811V32.4799H920.851V30.95Z" fill="#000010"/>
<path d="M920.851 27.9H917.811V29.43H920.851V27.9Z" fill="#000010"/>
<path d="M920.851 6.56995H917.811V8.09995H920.851V6.56995Z" fill="#000010"/>
<path d="M920.851 3.52002H917.811V5.05002H920.851V3.52002Z" fill="#000010"/>
<path d="M917.809 32.48H910.189V34H917.809V32.48Z" fill="#000010"/>
<path d="M917.809 29.4301H910.189V30.9501H917.809V29.4301Z" fill="#000010"/>
<path d="M917.809 5.05005H910.189V6.57005H917.809V5.05005Z" fill="#000010"/>
<path d="M917.809 2H910.189V3.52H917.809V2Z" fill="#000010"/>
<path d="M910.191 30.95H907.141V32.4799H910.191V30.95Z" fill="#000010"/>
<path d="M910.191 27.9H907.141V29.43H910.191V27.9Z" fill="#000010"/>
<path d="M910.191 6.56995H907.141V8.09995H910.191V6.56995Z" fill="#000010"/>
<path d="M907.141 8.09998H905.621V9.61998H907.141V8.09998Z" fill="#000010"/>
<path d="M910.191 3.52002H907.141V5.05002H910.191V3.52002Z" fill="#000010"/>
<path d="M907.14 29.4301H904.09V30.9501H907.14V29.4301Z" fill="#000010"/>
<path d="M907.139 26.38H905.619V27.9H907.139V26.38Z" fill="#000010"/>
<path d="M907.14 5.05005H904.09V6.57005H907.14V5.05005Z" fill="#000010"/>
<path d="M905.62 24.86H904.09V26.38H905.62V24.86Z" fill="#000010"/>
<path d="M905.62 9.62H904.09V11.14H905.62V9.62Z" fill="#000010"/>
<path d="M904.09 27.9H902.57V29.43H904.09V27.9Z" fill="#000010"/>
<path d="M904.09 21.8101H902.57V24.8601H904.09V21.8101Z" fill="#000010"/>
<path d="M904.09 11.14H902.57V14.19H904.09V11.14Z" fill="#000010"/>
<path d="M904.09 6.56995H902.57V8.09995H904.09V6.56995Z" fill="#000010"/>
<path d="M902.571 24.86H901.051V27.9H902.571V24.86Z" fill="#000010"/>
<path d="M902.571 14.1899H901.051V21.8099H902.571V14.1899Z" fill="#000010"/>
<path d="M902.571 8.09998H901.051V11.14H902.571V8.09998Z" fill="#000010"/>
<path d="M901.05 21.8101H899.52V24.8601H901.05V21.8101Z" fill="#000010"/>
<path d="M901.05 11.14H899.52V14.19H901.05V11.14Z" fill="#000010"/>
<path d="M899.52 14.1899H898V21.8099H899.52V14.1899Z" fill="#000010"/>
</g>
<defs>
<clipPath id="clip0_145_624">
<rect width="32" height="32" fill="white" transform="translate(129 410)"/>
</clipPath>
<clipPath id="clip1_145_624">
<rect width="32" height="32" fill="white" transform="translate(683 410)"/>
</clipPath>
<clipPath id="clip2_145_624">
<rect width="32" height="32" fill="white" transform="translate(397)"/>
</clipPath>
<clipPath id="clip3_145_624">
<rect width="32" height="32" fill="white" transform="translate(898 2)"/>
</clipPath>
</defs>
</svg>
