<svg width="1727" height="442" viewBox="0 0 1727 442" fill="none" xmlns="http://www.w3.org/2000/svg">
<line y1="224" x2="76" y2="224" stroke="#000010" stroke-width="4"/>
<line x1="76" y1="129" x2="153" y2="129" stroke="#000010" stroke-width="4"/>
<line x1="380" y1="258" x2="333" y2="258" stroke="#000010" stroke-width="4"/>
<line x1="921" y1="255" x2="854" y2="255" stroke="#000010" stroke-width="4"/>
<line x1="1387" y1="190" x2="1320" y2="190" stroke="#000010" stroke-width="4"/>
<line x1="980" y1="353" x2="959" y2="353" stroke="#000010" stroke-width="4"/>
<line x1="1446" y1="324" x2="1425" y2="324" stroke="#000010" stroke-width="4"/>
<line y1="-2" x2="34" y2="-2" transform="matrix(-1 0 0 1 337 161)" stroke="#000010" stroke-width="4"/>
<line x1="1118" y1="250" x2="1145" y2="250" stroke="#000010" stroke-width="4"/>
<line y1="-2" x2="57" y2="-2" transform="matrix(-1 0 0 1 854 161)" stroke="#000010" stroke-width="4"/>
<line x1="613" y1="189" x2="660" y2="189" stroke="#000010" stroke-width="4"/>
<line x1="617" y1="285" x2="543" y2="285" stroke="#000010" stroke-width="4"/>
<line x1="1122" y1="347" x2="1078" y2="347" stroke="#000010" stroke-width="4"/>
<line x1="174" y1="16" x2="281" y2="16" stroke="#000010" stroke-width="4"/>
<line x1="703" y1="16" x2="776" y2="16" stroke="#000010" stroke-width="4"/>
<line x1="1203" y1="18" x2="1276" y2="18" stroke="#000010" stroke-width="4"/>
<line x1="376" y1="276" x2="436" y2="276" stroke="#000010" stroke-width="4"/>
<line x1="917" y1="276" x2="963" y2="276" stroke="#000010" stroke-width="4"/>
<line x1="1383" y1="220" x2="1429" y2="220" stroke="#000010" stroke-width="4"/>
<line x1="979" y1="372" x2="992" y2="372" stroke="#000010" stroke-width="4"/>
<line x1="1445" y1="352" x2="1458" y2="352" stroke="#000010" stroke-width="4"/>
<line x1="432" y1="426" x2="514" y2="426" stroke="#000010" stroke-width="4"/>
<line x1="992" y1="426" x2="1054" y2="426" stroke="#000010" stroke-width="4"/>
<line x1="150" y1="34" x2="178" y2="34" stroke="#000010" stroke-width="4"/>
<line y1="-2" x2="28" y2="-2" transform="matrix(-1 0 0 1 1324 98)" stroke="#000010" stroke-width="4"/>
<line x1="688" y1="36" x2="706" y2="36" stroke="#000010" stroke-width="4"/>
<line x1="1188" y1="44" x2="1206" y2="44" stroke="#000010" stroke-width="4"/>
<line y1="-2" x2="28" y2="-2" transform="matrix(-1 0 0 1 305 65)" stroke="#000010" stroke-width="4"/>
<line x1="1142" y1="155" x2="1165" y2="155" stroke="#000010" stroke-width="4"/>
<line y1="-2" x2="27" y2="-2" transform="matrix(-1 0 0 1 799 65)" stroke="#000010" stroke-width="4"/>
<line y1="-2" x2="28" y2="-2" transform="matrix(-1 0 0 1 1300 81)" stroke="#000010" stroke-width="4"/>
<line x1="1192" y1="109" x2="1165" y2="109" stroke="#000010" stroke-width="4"/>
<line x1="656" y1="93" x2="692" y2="93" stroke="#000010" stroke-width="4"/>
<line x1="546" y1="381" x2="511" y2="381" stroke="#000010" stroke-width="4"/>
<line x1="1079" y1="381" x2="1050" y2="381" stroke="#000010" stroke-width="4"/>
<line x1="77" y1="128" x2="77" y2="226" stroke="#000010" stroke-width="4"/>
<line x1="176" y1="16" x2="176" y2="36" stroke="#000010" stroke-width="4"/>
<line x1="1298" y1="79" x2="1298" y2="98" stroke="#000010" stroke-width="4"/>
<line x1="705" y1="16" x2="705" y2="38" stroke="#000010" stroke-width="4"/>
<line x1="1205" y1="18" x2="1205" y2="46" stroke="#000010" stroke-width="4"/>
<line y1="-2" x2="21" y2="-2" transform="matrix(4.0021e-07 -1 -1 -4.77421e-09 376 278)" stroke="#000010" stroke-width="4"/>
<line x1="919" y1="278" x2="919" y2="253" stroke="#000010" stroke-width="4"/>
<line x1="1385" y1="222" x2="1385" y2="188" stroke="#000010" stroke-width="4"/>
<line x1="978" y1="374" x2="978" y2="351" stroke="#000010" stroke-width="4"/>
<line x1="1444" y1="354" x2="1444" y2="322" stroke="#000010" stroke-width="4"/>
<line y1="-2" x2="49" y2="-2" transform="matrix(-2.85678e-07 1 1 6.68824e-09 281 16)" stroke="#000010" stroke-width="4"/>
<line x1="1164" y1="107" x2="1164" y2="157" stroke="#000010" stroke-width="4"/>
<line y1="-2" x2="49" y2="-2" transform="matrix(-2.84778e-07 1 1 6.70939e-09 776 16)" stroke="#000010" stroke-width="4"/>
<line x1="1274" y1="17" x2="1274" y2="80" stroke="#000010" stroke-width="4"/>
<line x1="990" y1="372" x2="990" y2="428" stroke="#000010" stroke-width="4"/>
<line x1="1456" y1="351" x2="1456" y2="428" stroke="#000010" stroke-width="4"/>
<line x1="690" y1="36" x2="690" y2="95" stroke="#000010" stroke-width="4"/>
<line x1="1190" y1="42" x2="1190" y2="111" stroke="#000010" stroke-width="4"/>
<line x1="512" y1="428" x2="512" y2="379" stroke="#000010" stroke-width="4"/>
<line x1="1052" y1="428" x2="1052" y2="379" stroke="#000010" stroke-width="4"/>
<line x1="152" y1="33" x2="152" y2="131" stroke="#000010" stroke-width="4"/>
<line x1="1322" y1="94" x2="1322" y2="192" stroke="#000010" stroke-width="4"/>
<line x1="434" y1="428" x2="434" y2="274" stroke="#000010" stroke-width="4"/>
<line x1="961" y1="354" x2="961" y2="274" stroke="#000010" stroke-width="4"/>
<line x1="1427" y1="325" x2="1427" y2="219" stroke="#000010" stroke-width="4"/>
<line y1="-2" x2="99" y2="-2" transform="matrix(-3.74784e-08 1 1 5.09809e-08 337 158)" stroke="#000010" stroke-width="4"/>
<line x1="1120" y1="249" x2="1120" y2="347" stroke="#000010" stroke-width="4"/>
<line x1="856" y1="158" x2="856" y2="256" stroke="#000010" stroke-width="4"/>
<line x1="615" y1="188" x2="615" y2="286" stroke="#000010" stroke-width="4"/>
<line y1="-2" x2="98" y2="-2" transform="matrix(-3.32669e-08 1 1 5.74349e-08 305 63)" stroke="#000010" stroke-width="4"/>
<line x1="1144" y1="153" x2="1144" y2="252" stroke="#000010" stroke-width="4"/>
<line x1="799" y1="63" x2="799" y2="161" stroke="#000010" stroke-width="4"/>
<line x1="658" y1="92" x2="658" y2="191" stroke="#000010" stroke-width="4"/>
<line x1="544" y1="381" x2="544" y2="283" stroke="#000010" stroke-width="4"/>
<line x1="1656" y1="285" x2="1565" y2="285" stroke="#000010" stroke-width="4"/>
<line x1="1693" y1="285" x2="1662" y2="285" stroke="#000010" stroke-width="4"/>
<line x1="1714" y1="285" x2="1699" y2="285" stroke="#000010" stroke-width="4"/>
<line x1="1727" y1="285" x2="1720" y2="285" stroke="#000010" stroke-width="4"/>
<line x1="1454" y1="426" x2="1536" y2="426" stroke="#000010" stroke-width="4"/>
<line x1="1568" y1="381" x2="1533" y2="381" stroke="#000010" stroke-width="4"/>
<line x1="1534" y1="428" x2="1534" y2="379" stroke="#000010" stroke-width="4"/>
<line x1="1566" y1="381" x2="1566" y2="283" stroke="#000010" stroke-width="4"/>
<line x1="1077" y1="381" x2="1077" y2="345" stroke="#000010" stroke-width="4"/>
<g clip-path="url(#clip0_205_152)">
<path d="M221.001 12.1899H219.471V19.8099H221.001V12.1899Z" fill="#000010"/>
<path d="M219.469 19.8101H217.949V22.8601H219.469V19.8101Z" fill="#000010"/>
<path d="M219.469 9.13989H217.949V12.1899H219.469V9.13989Z" fill="#000010"/>
<path d="M217.95 22.8601H216.43V25.9001H217.95V22.8601Z" fill="#000010"/>
<path d="M217.95 12.1899H216.43V19.8099H217.95V12.1899Z" fill="#000010"/>
<path d="M217.95 6.1001H216.43V9.1401H217.95V6.1001Z" fill="#000010"/>
<path d="M216.43 25.8999H214.9V27.4299H216.43V25.8999Z" fill="#000010"/>
<path d="M216.43 19.8101H214.9V22.8601H216.43V19.8101Z" fill="#000010"/>
<path d="M216.43 9.13989H214.9V12.1899H216.43V9.13989Z" fill="#000010"/>
<path d="M216.43 4.57007H214.9V6.10007H216.43V4.57007Z" fill="#000010"/>
<path d="M214.901 22.8601H213.381V24.3801H214.901V22.8601Z" fill="#000010"/>
<path d="M214.901 7.62012H213.381V9.14012H214.901V7.62012Z" fill="#000010"/>
<path d="M214.9 27.4299H211.85V28.9499H214.9V27.4299Z" fill="#000010"/>
<path d="M213.38 24.3799H211.85V25.8999H213.38V24.3799Z" fill="#000010"/>
<path d="M213.38 6.1001H211.85V7.6201H213.38V6.1001Z" fill="#000010"/>
<path d="M214.9 3.05005H211.85V4.57005H214.9V3.05005Z" fill="#000010"/>
<path d="M211.851 28.95H208.811V30.4799H211.851V28.95Z" fill="#000010"/>
<path d="M211.851 25.8999H208.811V27.4299H211.851V25.8999Z" fill="#000010"/>
<path d="M211.851 4.57007H208.811V6.10007H211.851V4.57007Z" fill="#000010"/>
<path d="M211.851 1.52002H208.811V3.05002H211.851V1.52002Z" fill="#000010"/>
<path d="M208.809 30.48H201.189V32H208.809V30.48Z" fill="#000010"/>
<path d="M208.809 27.4299H201.189V28.9499H208.809V27.4299Z" fill="#000010"/>
<path d="M208.809 3.05005H201.189V4.57005H208.809V3.05005Z" fill="#000010"/>
<path d="M208.809 0H201.189V1.52H208.809V0Z" fill="#000010"/>
<path d="M201.191 28.95H198.141V30.4799H201.191V28.95Z" fill="#000010"/>
<path d="M201.191 25.8999H198.141V27.4299H201.191V25.8999Z" fill="#000010"/>
<path d="M201.191 4.57007H198.141V6.10007H201.191V4.57007Z" fill="#000010"/>
<path d="M198.141 6.09985H196.621V7.61985H198.141V6.09985Z" fill="#000010"/>
<path d="M201.191 1.52002H198.141V3.05002H201.191V1.52002Z" fill="#000010"/>
<path d="M198.14 27.4299H195.09V28.9499H198.14V27.4299Z" fill="#000010"/>
<path d="M198.139 24.3799H196.619V25.8999H198.139V24.3799Z" fill="#000010"/>
<path d="M198.14 3.05005H195.09V4.57005H198.14V3.05005Z" fill="#000010"/>
<path d="M196.62 22.8601H195.09V24.3801H196.62V22.8601Z" fill="#000010"/>
<path d="M196.62 7.62012H195.09V9.14012H196.62V7.62012Z" fill="#000010"/>
<path d="M195.09 25.8999H193.57V27.4299H195.09V25.8999Z" fill="#000010"/>
<path d="M195.09 19.8101H193.57V22.8601H195.09V19.8101Z" fill="#000010"/>
<path d="M195.09 9.13989H193.57V12.1899H195.09V9.13989Z" fill="#000010"/>
<path d="M195.09 4.57007H193.57V6.10007H195.09V4.57007Z" fill="#000010"/>
<path d="M193.571 22.8601H192.051V25.9001H193.571V22.8601Z" fill="#000010"/>
<path d="M193.571 12.1899H192.051V19.8099H193.571V12.1899Z" fill="#000010"/>
<path d="M193.571 6.1001H192.051V9.1401H193.571V6.1001Z" fill="#000010"/>
<path d="M192.05 19.8101H190.52V22.8601H192.05V19.8101Z" fill="#000010"/>
<path d="M192.05 9.13989H190.52V12.1899H192.05V9.13989Z" fill="#000010"/>
<path d="M190.52 12.1899H189V19.8099H190.52V12.1899Z" fill="#000010"/>
</g>
<g clip-path="url(#clip1_205_152)">
<path d="M479.001 422.19H477.471V429.81H479.001V422.19Z" fill="#000010"/>
<path d="M477.469 429.81H475.949V432.86H477.469V429.81Z" fill="#000010"/>
<path d="M477.469 419.14H475.949V422.19H477.469V419.14Z" fill="#000010"/>
<path d="M475.95 432.86H474.43V435.9H475.95V432.86Z" fill="#000010"/>
<path d="M475.95 422.19H474.43V429.81H475.95V422.19Z" fill="#000010"/>
<path d="M475.95 416.1H474.43V419.14H475.95V416.1Z" fill="#000010"/>
<path d="M474.43 435.9H472.9V437.43H474.43V435.9Z" fill="#000010"/>
<path d="M474.43 429.81H472.9V432.86H474.43V429.81Z" fill="#000010"/>
<path d="M474.43 419.14H472.9V422.19H474.43V419.14Z" fill="#000010"/>
<path d="M474.43 414.57H472.9V416.1H474.43V414.57Z" fill="#000010"/>
<path d="M472.901 432.86H471.381V434.38H472.901V432.86Z" fill="#000010"/>
<path d="M472.901 417.62H471.381V419.14H472.901V417.62Z" fill="#000010"/>
<path d="M472.9 437.43H469.85V438.95H472.9V437.43Z" fill="#000010"/>
<path d="M471.38 434.38H469.85V435.9H471.38V434.38Z" fill="#000010"/>
<path d="M471.38 416.1H469.85V417.62H471.38V416.1Z" fill="#000010"/>
<path d="M472.9 413.05H469.85V414.57H472.9V413.05Z" fill="#000010"/>
<path d="M469.851 438.95H466.811V440.48H469.851V438.95Z" fill="#000010"/>
<path d="M469.851 435.9H466.811V437.43H469.851V435.9Z" fill="#000010"/>
<path d="M469.851 414.57H466.811V416.1H469.851V414.57Z" fill="#000010"/>
<path d="M469.851 411.52H466.811V413.05H469.851V411.52Z" fill="#000010"/>
<path d="M466.809 440.48H459.189V442H466.809V440.48Z" fill="#000010"/>
<path d="M466.809 437.43H459.189V438.95H466.809V437.43Z" fill="#000010"/>
<path d="M466.809 413.05H459.189V414.57H466.809V413.05Z" fill="#000010"/>
<path d="M466.809 410H459.189V411.52H466.809V410Z" fill="#000010"/>
<path d="M459.191 438.95H456.141V440.48H459.191V438.95Z" fill="#000010"/>
<path d="M459.191 435.9H456.141V437.43H459.191V435.9Z" fill="#000010"/>
<path d="M459.191 414.57H456.141V416.1H459.191V414.57Z" fill="#000010"/>
<path d="M456.141 416.1H454.621V417.62H456.141V416.1Z" fill="#000010"/>
<path d="M459.191 411.52H456.141V413.05H459.191V411.52Z" fill="#000010"/>
<path d="M456.14 437.43H453.09V438.95H456.14V437.43Z" fill="#000010"/>
<path d="M456.139 434.38H454.619V435.9H456.139V434.38Z" fill="#000010"/>
<path d="M456.14 413.05H453.09V414.57H456.14V413.05Z" fill="#000010"/>
<path d="M454.62 432.86H453.09V434.38H454.62V432.86Z" fill="#000010"/>
<path d="M454.62 417.62H453.09V419.14H454.62V417.62Z" fill="#000010"/>
<path d="M453.09 435.9H451.57V437.43H453.09V435.9Z" fill="#000010"/>
<path d="M453.09 429.81H451.57V432.86H453.09V429.81Z" fill="#000010"/>
<path d="M453.09 419.14H451.57V422.19H453.09V419.14Z" fill="#000010"/>
<path d="M453.09 414.57H451.57V416.1H453.09V414.57Z" fill="#000010"/>
<path d="M451.571 432.86H450.051V435.9H451.571V432.86Z" fill="#000010"/>
<path d="M451.571 422.19H450.051V429.81H451.571V422.19Z" fill="#000010"/>
<path d="M451.571 416.1H450.051V419.14H451.571V416.1Z" fill="#000010"/>
<path d="M450.05 429.81H448.52V432.86H450.05V429.81Z" fill="#000010"/>
<path d="M450.05 419.14H448.52V422.19H450.05V419.14Z" fill="#000010"/>
<path d="M448.52 422.19H447V429.81H448.52V422.19Z" fill="#000010"/>
</g>
<g clip-path="url(#clip2_205_152)">
<path d="M1033 422.19H1031.47V429.81H1033V422.19Z" fill="#000010"/>
<path d="M1031.47 429.81H1029.95V432.86H1031.47V429.81Z" fill="#000010"/>
<path d="M1031.47 419.14H1029.95V422.19H1031.47V419.14Z" fill="#000010"/>
<path d="M1029.95 432.86H1028.43V435.9H1029.95V432.86Z" fill="#000010"/>
<path d="M1029.95 422.19H1028.43V429.81H1029.95V422.19Z" fill="#000010"/>
<path d="M1029.95 416.1H1028.43V419.14H1029.95V416.1Z" fill="#000010"/>
<path d="M1028.43 435.9H1026.9V437.43H1028.43V435.9Z" fill="#000010"/>
<path d="M1028.43 429.81H1026.9V432.86H1028.43V429.81Z" fill="#000010"/>
<path d="M1028.43 419.14H1026.9V422.19H1028.43V419.14Z" fill="#000010"/>
<path d="M1028.43 414.57H1026.9V416.1H1028.43V414.57Z" fill="#000010"/>
<path d="M1026.9 432.86H1025.38V434.38H1026.9V432.86Z" fill="#000010"/>
<path d="M1026.9 417.62H1025.38V419.14H1026.9V417.62Z" fill="#000010"/>
<path d="M1026.9 437.43H1023.85V438.95H1026.9V437.43Z" fill="#000010"/>
<path d="M1025.38 434.38H1023.85V435.9H1025.38V434.38Z" fill="#000010"/>
<path d="M1025.38 416.1H1023.85V417.62H1025.38V416.1Z" fill="#000010"/>
<path d="M1026.9 413.05H1023.85V414.57H1026.9V413.05Z" fill="#000010"/>
<path d="M1023.85 438.95H1020.81V440.48H1023.85V438.95Z" fill="#000010"/>
<path d="M1023.85 435.9H1020.81V437.43H1023.85V435.9Z" fill="#000010"/>
<path d="M1023.85 414.57H1020.81V416.1H1023.85V414.57Z" fill="#000010"/>
<path d="M1023.85 411.52H1020.81V413.05H1023.85V411.52Z" fill="#000010"/>
<path d="M1020.81 440.48H1013.19V442H1020.81V440.48Z" fill="#000010"/>
<path d="M1020.81 437.43H1013.19V438.95H1020.81V437.43Z" fill="#000010"/>
<path d="M1020.81 413.05H1013.19V414.57H1020.81V413.05Z" fill="#000010"/>
<path d="M1020.81 410H1013.19V411.52H1020.81V410Z" fill="#000010"/>
<path d="M1013.19 438.95H1010.14V440.48H1013.19V438.95Z" fill="#000010"/>
<path d="M1013.19 435.9H1010.14V437.43H1013.19V435.9Z" fill="#000010"/>
<path d="M1013.19 414.57H1010.14V416.1H1013.19V414.57Z" fill="#000010"/>
<path d="M1010.14 416.1H1008.62V417.62H1010.14V416.1Z" fill="#000010"/>
<path d="M1013.19 411.52H1010.14V413.05H1013.19V411.52Z" fill="#000010"/>
<path d="M1010.14 437.43H1007.09V438.95H1010.14V437.43Z" fill="#000010"/>
<path d="M1010.14 434.38H1008.62V435.9H1010.14V434.38Z" fill="#000010"/>
<path d="M1010.14 413.05H1007.09V414.57H1010.14V413.05Z" fill="#000010"/>
<path d="M1008.62 432.86H1007.09V434.38H1008.62V432.86Z" fill="#000010"/>
<path d="M1008.62 417.62H1007.09V419.14H1008.62V417.62Z" fill="#000010"/>
<path d="M1007.09 435.9H1005.57V437.43H1007.09V435.9Z" fill="#000010"/>
<path d="M1007.09 429.81H1005.57V432.86H1007.09V429.81Z" fill="#000010"/>
<path d="M1007.09 419.14H1005.57V422.19H1007.09V419.14Z" fill="#000010"/>
<path d="M1007.09 414.57H1005.57V416.1H1007.09V414.57Z" fill="#000010"/>
<path d="M1005.57 432.86H1004.05V435.9H1005.57V432.86Z" fill="#000010"/>
<path d="M1005.57 422.19H1004.05V429.81H1005.57V422.19Z" fill="#000010"/>
<path d="M1005.57 416.1H1004.05V419.14H1005.57V416.1Z" fill="#000010"/>
<path d="M1004.05 429.81H1002.52V432.86H1004.05V429.81Z" fill="#000010"/>
<path d="M1004.05 419.14H1002.52V422.19H1004.05V419.14Z" fill="#000010"/>
<path d="M1002.52 422.19H1001V429.81H1002.52V422.19Z" fill="#000010"/>
</g>
<g clip-path="url(#clip3_205_152)">
<path d="M747.001 12.1899H745.471V19.8099H747.001V12.1899Z" fill="#000010"/>
<path d="M745.469 19.8101H743.949V22.8601H745.469V19.8101Z" fill="#000010"/>
<path d="M745.469 9.13989H743.949V12.1899H745.469V9.13989Z" fill="#000010"/>
<path d="M743.95 22.8601H742.43V25.9001H743.95V22.8601Z" fill="#000010"/>
<path d="M743.95 12.1899H742.43V19.8099H743.95V12.1899Z" fill="#000010"/>
<path d="M743.95 6.1001H742.43V9.1401H743.95V6.1001Z" fill="#000010"/>
<path d="M742.43 25.8999H740.9V27.4299H742.43V25.8999Z" fill="#000010"/>
<path d="M742.43 19.8101H740.9V22.8601H742.43V19.8101Z" fill="#000010"/>
<path d="M742.43 9.13989H740.9V12.1899H742.43V9.13989Z" fill="#000010"/>
<path d="M742.43 4.57007H740.9V6.10007H742.43V4.57007Z" fill="#000010"/>
<path d="M740.901 22.8601H739.381V24.3801H740.901V22.8601Z" fill="#000010"/>
<path d="M740.901 7.62012H739.381V9.14012H740.901V7.62012Z" fill="#000010"/>
<path d="M740.9 27.4299H737.85V28.9499H740.9V27.4299Z" fill="#000010"/>
<path d="M739.38 24.3799H737.85V25.8999H739.38V24.3799Z" fill="#000010"/>
<path d="M739.38 6.1001H737.85V7.6201H739.38V6.1001Z" fill="#000010"/>
<path d="M740.9 3.05005H737.85V4.57005H740.9V3.05005Z" fill="#000010"/>
<path d="M737.851 28.95H734.811V30.4799H737.851V28.95Z" fill="#000010"/>
<path d="M737.851 25.8999H734.811V27.4299H737.851V25.8999Z" fill="#000010"/>
<path d="M737.851 4.57007H734.811V6.10007H737.851V4.57007Z" fill="#000010"/>
<path d="M737.851 1.52002H734.811V3.05002H737.851V1.52002Z" fill="#000010"/>
<path d="M734.809 30.48H727.189V32H734.809V30.48Z" fill="#000010"/>
<path d="M734.809 27.4299H727.189V28.9499H734.809V27.4299Z" fill="#000010"/>
<path d="M734.809 3.05005H727.189V4.57005H734.809V3.05005Z" fill="#000010"/>
<path d="M734.809 0H727.189V1.52H734.809V0Z" fill="#000010"/>
<path d="M727.191 28.95H724.141V30.4799H727.191V28.95Z" fill="#000010"/>
<path d="M727.191 25.8999H724.141V27.4299H727.191V25.8999Z" fill="#000010"/>
<path d="M727.191 4.57007H724.141V6.10007H727.191V4.57007Z" fill="#000010"/>
<path d="M724.141 6.09985H722.621V7.61985H724.141V6.09985Z" fill="#000010"/>
<path d="M727.191 1.52002H724.141V3.05002H727.191V1.52002Z" fill="#000010"/>
<path d="M724.14 27.4299H721.09V28.9499H724.14V27.4299Z" fill="#000010"/>
<path d="M724.139 24.3799H722.619V25.8999H724.139V24.3799Z" fill="#000010"/>
<path d="M724.14 3.05005H721.09V4.57005H724.14V3.05005Z" fill="#000010"/>
<path d="M722.62 22.8601H721.09V24.3801H722.62V22.8601Z" fill="#000010"/>
<path d="M722.62 7.62012H721.09V9.14012H722.62V7.62012Z" fill="#000010"/>
<path d="M721.09 25.8999H719.57V27.4299H721.09V25.8999Z" fill="#000010"/>
<path d="M721.09 19.8101H719.57V22.8601H721.09V19.8101Z" fill="#000010"/>
<path d="M721.09 9.13989H719.57V12.1899H721.09V9.13989Z" fill="#000010"/>
<path d="M721.09 4.57007H719.57V6.10007H721.09V4.57007Z" fill="#000010"/>
<path d="M719.571 22.8601H718.051V25.9001H719.571V22.8601Z" fill="#000010"/>
<path d="M719.571 12.1899H718.051V19.8099H719.571V12.1899Z" fill="#000010"/>
<path d="M719.571 6.1001H718.051V9.1401H719.571V6.1001Z" fill="#000010"/>
<path d="M718.05 19.8101H716.52V22.8601H718.05V19.8101Z" fill="#000010"/>
<path d="M718.05 9.13989H716.52V12.1899H718.05V9.13989Z" fill="#000010"/>
<path d="M716.52 12.1899H715V19.8099H716.52V12.1899Z" fill="#000010"/>
</g>
<g clip-path="url(#clip4_205_152)">
<path d="M1248 14.1899H1246.47V21.8099H1248V14.1899Z" fill="#000010"/>
<path d="M1246.47 21.8101H1244.95V24.8601H1246.47V21.8101Z" fill="#000010"/>
<path d="M1246.47 11.1399H1244.95V14.1899H1246.47V11.1399Z" fill="#000010"/>
<path d="M1244.95 24.8601H1243.43V27.9001H1244.95V24.8601Z" fill="#000010"/>
<path d="M1244.95 14.1899H1243.43V21.8099H1244.95V14.1899Z" fill="#000010"/>
<path d="M1244.95 8.1001H1243.43V11.1401H1244.95V8.1001Z" fill="#000010"/>
<path d="M1243.43 27.8999H1241.9V29.4299H1243.43V27.8999Z" fill="#000010"/>
<path d="M1243.43 21.8101H1241.9V24.8601H1243.43V21.8101Z" fill="#000010"/>
<path d="M1243.43 11.1399H1241.9V14.1899H1243.43V11.1399Z" fill="#000010"/>
<path d="M1243.43 6.57007H1241.9V8.10007H1243.43V6.57007Z" fill="#000010"/>
<path d="M1241.9 24.8601H1240.38V26.3801H1241.9V24.8601Z" fill="#000010"/>
<path d="M1241.9 9.62012H1240.38V11.1401H1241.9V9.62012Z" fill="#000010"/>
<path d="M1241.9 29.4299H1238.85V30.9499H1241.9V29.4299Z" fill="#000010"/>
<path d="M1240.38 26.3799H1238.85V27.8999H1240.38V26.3799Z" fill="#000010"/>
<path d="M1240.38 8.1001H1238.85V9.6201H1240.38V8.1001Z" fill="#000010"/>
<path d="M1241.9 5.05005H1238.85V6.57005H1241.9V5.05005Z" fill="#000010"/>
<path d="M1238.85 30.95H1235.81V32.4799H1238.85V30.95Z" fill="#000010"/>
<path d="M1238.85 27.8999H1235.81V29.4299H1238.85V27.8999Z" fill="#000010"/>
<path d="M1238.85 6.57007H1235.81V8.10007H1238.85V6.57007Z" fill="#000010"/>
<path d="M1238.85 3.52002H1235.81V5.05002H1238.85V3.52002Z" fill="#000010"/>
<path d="M1235.81 32.48H1228.19V34H1235.81V32.48Z" fill="#000010"/>
<path d="M1235.81 29.4299H1228.19V30.9499H1235.81V29.4299Z" fill="#000010"/>
<path d="M1235.81 5.05005H1228.19V6.57005H1235.81V5.05005Z" fill="#000010"/>
<path d="M1235.81 2H1228.19V3.52H1235.81V2Z" fill="#000010"/>
<path d="M1228.19 30.95H1225.14V32.4799H1228.19V30.95Z" fill="#000010"/>
<path d="M1228.19 27.8999H1225.14V29.4299H1228.19V27.8999Z" fill="#000010"/>
<path d="M1228.19 6.57007H1225.14V8.10007H1228.19V6.57007Z" fill="#000010"/>
<path d="M1225.14 8.09985H1223.62V9.61985H1225.14V8.09985Z" fill="#000010"/>
<path d="M1228.19 3.52002H1225.14V5.05002H1228.19V3.52002Z" fill="#000010"/>
<path d="M1225.14 29.4299H1222.09V30.9499H1225.14V29.4299Z" fill="#000010"/>
<path d="M1225.14 26.3799H1223.62V27.8999H1225.14V26.3799Z" fill="#000010"/>
<path d="M1225.14 5.05005H1222.09V6.57005H1225.14V5.05005Z" fill="#000010"/>
<path d="M1223.62 24.8601H1222.09V26.3801H1223.62V24.8601Z" fill="#000010"/>
<path d="M1223.62 9.62012H1222.09V11.1401H1223.62V9.62012Z" fill="#000010"/>
<path d="M1222.09 27.8999H1220.57V29.4299H1222.09V27.8999Z" fill="#000010"/>
<path d="M1222.09 21.8101H1220.57V24.8601H1222.09V21.8101Z" fill="#000010"/>
<path d="M1222.09 11.1399H1220.57V14.1899H1222.09V11.1399Z" fill="#000010"/>
<path d="M1222.09 6.57007H1220.57V8.10007H1222.09V6.57007Z" fill="#000010"/>
<path d="M1220.57 24.8601H1219.05V27.9001H1220.57V24.8601Z" fill="#000010"/>
<path d="M1220.57 14.1899H1219.05V21.8099H1220.57V14.1899Z" fill="#000010"/>
<path d="M1220.57 8.1001H1219.05V11.1401H1220.57V8.1001Z" fill="#000010"/>
<path d="M1219.05 21.8101H1217.52V24.8601H1219.05V21.8101Z" fill="#000010"/>
<path d="M1219.05 11.1399H1217.52V14.1899H1219.05V11.1399Z" fill="#000010"/>
<path d="M1217.52 14.1899H1216V21.8099H1217.52V14.1899Z" fill="#000010"/>
</g>
<defs>
<clipPath id="clip0_205_152">
<rect width="32" height="32" fill="white" transform="translate(189)"/>
</clipPath>
<clipPath id="clip1_205_152">
<rect width="32" height="32" fill="white" transform="translate(447 410)"/>
</clipPath>
<clipPath id="clip2_205_152">
<rect width="32" height="32" fill="white" transform="translate(1001 410)"/>
</clipPath>
<clipPath id="clip3_205_152">
<rect width="32" height="32" fill="white" transform="translate(715)"/>
</clipPath>
<clipPath id="clip4_205_152">
<rect width="32" height="32" fill="white" transform="translate(1216 2)"/>
</clipPath>
</defs>
</svg>
